<svg id="Capa_1" data-name="Capa 1" xmlns="http://www.w3.org/2000/svg" viewBox="0 0 286.48 125.89"><defs><style>.cls-1{font-size:90px;fill:#2c5faa;font-family:Flipahaus-Regular, Flipahaus;}.cls-2{opacity:0.33;}.cls-3,.cls-5{fill:#5d93b1;}.cls-4,.cls-6{fill:#005c98;}.cls-5,.cls-6{opacity:0.24;}</style></defs><title>logo hermana</title><text class="cls-1" transform="translate(0 105.55) scale(1.12 1)"><tspan xml:space="preserve">     ago</tspan></text><g class="cls-2"><text class="cls-1" transform="translate(4.43 104.38) scale(1.12 1)"><tspan xml:space="preserve">     ago</tspan></text></g><path class="cls-3" d="M119.52,89.58H92.71c-3.35.24-7.71,2.65-7.52,7.55v20.56a8.18,8.18,0,0,0,6.93,8.06c5.21.69,17.66.11,27.4,0,5.07.09,7.5-2.74,7.85-7.85V96.82C126.71,92.68,124.47,89.85,119.52,89.58Z" transform="translate(-32.76 -46.25)"/><path class="cls-4" d="M116.15,96.55h-20c-2.79.5-3.42,2-3.66,3.67v14.94c0,3,1.68,3.56,3.59,3.6h20.1c2.84-.09,3.94-1.54,3.88-3.89V100.14C119.9,97.73,118.42,96.6,116.15,96.55Z" transform="translate(-32.76 -46.25)"/><path class="cls-3" d="M109.19,82.8h-6.32V50.12c.91-5.94,6.32-4.32,6.32,0Z" transform="translate(-32.76 -46.25)"/><path class="cls-3" d="M115,82.4h5.93V58.31c-1.12-3-4.67-3-5.93,0Z" transform="translate(-32.76 -46.25)"/><path class="cls-3" d="M127.06,68v16.6c4.6,3.26,6.79,7.35,6.85,12.17l14.44-.21c3.85-1.63,2.63-5.29,0-6.27H132.7V68C131,65.51,128.76,65.58,127.06,68Z" transform="translate(-32.76 -46.25)"/><path class="cls-3" d="M134.14,103.49v6.33h26.14c2.88-1.58,2.71-4.43,0-6.33Z" transform="translate(-32.76 -46.25)"/><path class="cls-4" d="M134.14,117.06c.2,2.49,0,5.47-.65,6.11h15.18c3.07-2.18,2.29-4.87,0-6.11Z" transform="translate(-32.76 -46.25)"/><path class="cls-4" d="M132.64,124.49c-1.55,3.32-3.41,5.92-5.9,7v16.81c.48,2.51,5.29,3.63,5.9,0Z" transform="translate(-32.76 -46.25)"/><path class="cls-4" d="M120.68,133.39h-5.59v24.35c0,3.27,5.59,4.06,5.59,0Z" transform="translate(-32.76 -46.25)"/><path class="cls-4" d="M109.24,133h-6v34.74a3,3,0,0,0,6,0V133" transform="translate(-32.76 -46.25)"/><path class="cls-4" d="M97.39,133H91.32v23.72c0,4.38,5.93,6,6.07,0V133.39" transform="translate(-32.76 -46.25)"/><path class="cls-4" d="M85.58,131.53a16.08,16.08,0,0,1-5.76-7V148c.54,3.76,5.1,2.85,5.37,0Z" transform="translate(-32.76 -46.25)"/><circle class="cls-4" cx="34.56" cy="93.86" r="4.14"/><circle class="cls-4" cx="112.56" cy="93.86" r="4.14"/><path class="cls-4" d="M78.41,116.91c0,1,.18,1.35.18,3.5.38.85.59,2,1,2.83h-15c-4.22-1.72-2.95-5.44,0-6.33Z" transform="translate(-32.76 -46.25)"/><path class="cls-3" d="M78.62,103.49v6.33H52.38c-3.73-1.48-2.53-5,0-6.33Z" transform="translate(-32.76 -46.25)"/><path class="cls-4" d="M78.62,96.55c-1.51-.16,4.26-12.72,7-12.28.17,0,0-16.07,0-16.07-1.95-2.55-4-3.07-6.11,0v22H63.81c-2.47,1.9-2.44,4,0,6.37Z" transform="translate(-32.76 -46.25)"/><circle class="cls-3" cx="34.58" cy="27.58" r="4.21"/><path class="cls-5" d="M118.52,90.4H91.71C88.36,90.64,84,93.05,84.2,98v20.55a8.16,8.16,0,0,0,6.92,8.06c5.21.69,17.66.11,27.4,0,5.07.09,7.5-2.74,7.86-7.85V97.64C125.71,93.5,123.47,90.67,118.52,90.4Z" transform="translate(-32.76 -46.25)"/><path class="cls-6" d="M115.15,97.38h-20c-2.78.49-3.41,2-3.66,3.66V116c0,3,1.68,3.56,3.6,3.6h20.09c2.84-.09,3.94-1.53,3.88-3.88V101C118.91,98.55,117.43,97.42,115.15,97.38Z" transform="translate(-32.76 -46.25)"/><path class="cls-5" d="M108.19,83.62h-6.32V50.94c.91-5.93,6.32-4.32,6.32,0Z" transform="translate(-32.76 -46.25)"/><path class="cls-5" d="M114,83.22h5.93V59.13c-1.12-3-4.66-3-5.93,0Z" transform="translate(-32.76 -46.25)"/><path class="cls-5" d="M126.06,68.81v16.6c4.6,3.26,6.79,7.35,6.85,12.18l14.44-.21c3.85-1.64,2.63-5.3,0-6.28H131.7V68.81C130,66.33,127.77,66.4,126.06,68.81Z" transform="translate(-32.76 -46.25)"/><path class="cls-5" d="M133.14,104.31v6.33h26.14c2.88-1.58,2.71-4.42,0-6.33Z" transform="translate(-32.76 -46.25)"/><path class="cls-6" d="M133.14,117.88c.2,2.5,0,5.47-.65,6.11h15.18c3.07-2.18,2.3-4.86,0-6.11Z" transform="translate(-32.76 -46.25)"/><path class="cls-6" d="M131.65,125.31c-1.56,3.32-3.42,5.93-5.91,7v16.81c.48,2.51,5.29,3.64,5.91,0Z" transform="translate(-32.76 -46.25)"/><path class="cls-6" d="M119.68,134.21H114.1v24.35c0,3.27,5.58,4.06,5.58,0Z" transform="translate(-32.76 -46.25)"/><path class="cls-6" d="M108.25,133.85h-6v34.73a3,3,0,0,0,6,0V133.85" transform="translate(-32.76 -46.25)"/><path class="cls-6" d="M96.39,133.85H90.33v23.71c0,4.38,5.93,6,6.06,0V134.21" transform="translate(-32.76 -46.25)"/><path class="cls-6" d="M84.58,132.35a16.08,16.08,0,0,1-5.76-7v23.56c.54,3.75,5.1,2.84,5.37,0Z" transform="translate(-32.76 -46.25)"/><circle class="cls-6" cx="33.56" cy="94.68" r="4.14"/><circle class="cls-6" cx="111.56" cy="94.68" r="4.14"/><path class="cls-6" d="M77.41,117.74c0,.94.18,1.34.18,3.49.38.86.59,2,1,2.83h-15c-4.22-1.72-3-5.43,0-6.32Z" transform="translate(-32.76 -46.25)"/><path class="cls-5" d="M77.63,104.31v6.33H51.38c-3.73-1.48-2.52-5,0-6.33Z" transform="translate(-32.76 -46.25)"/><path class="cls-6" d="M77.63,97.38c-1.52-.17,4.25-12.72,7-12.28.17,0,0-16.08,0-16.08-1.95-2.55-4-3.07-6.11,0V91H62.82c-2.48,1.9-2.45,4,0,6.38Z" transform="translate(-32.76 -46.25)"/><circle class="cls-5" cx="33.58" cy="28.4" r="4.21"/><circle class="cls-3" cx="112.37" cy="27.58" r="4.21"/></svg>